<svg width="33" height="40" viewBox="0 0 33 40" fill="none" xmlns="http://www.w3.org/2000/svg">
<path d="M5.37543 17.9749C5.26197 18.7952 5.14434 19.6165 5.03088 20.4367C4.95697 20.9648 4.88619 21.4918 4.81332 22.0251C4.91013 22.0533 4.97363 22.0773 5.03921 22.0898C6.29251 22.3246 7.54268 22.5719 8.80118 22.7796C9.08952 22.8203 9.35184 22.9257 9.58813 23.0969C9.82443 23.2691 10.0056 23.4861 10.1336 23.7481C10.4032 24.2563 10.6697 24.7656 10.9382 25.2728C11.2901 25.9334 11.6409 26.595 12.0021 27.2786C12.1083 27.2316 12.1967 27.194 12.2821 27.1533C13.4094 26.6232 14.5378 26.0983 15.662 25.5598C15.9181 25.4283 16.1898 25.3636 16.4771 25.3646C16.7644 25.3667 17.035 25.4345 17.289 25.5692C18.3966 26.117 19.5083 26.6566 20.6201 27.1982C20.694 27.2347 20.7731 27.2629 20.8543 27.2973C20.9126 27.1951 20.9636 27.1126 21.0114 27.0271C21.6058 25.9542 22.2012 24.8804 22.7946 23.8065C22.9226 23.5581 23.0985 23.3526 23.3234 23.1887C23.5493 23.0249 23.7991 22.9205 24.0739 22.8756C24.8015 22.7431 25.5333 22.6314 26.263 22.5104C26.8355 22.4144 27.4081 22.3173 27.9972 22.2171C27.9837 22.0804 27.9764 21.975 27.9639 21.8696C27.8171 20.6392 27.6714 19.413 27.5215 18.1847C27.4799 17.9092 27.5038 17.6399 27.5944 17.3769C27.6849 17.1139 27.8307 16.8864 28.0326 16.6955C28.3074 16.4189 28.576 16.1371 28.8477 15.8564L30.8015 13.835C30.7255 13.7462 30.6631 13.6732 30.5975 13.6033C29.7512 12.686 28.9049 11.7707 28.0576 10.8555C27.8765 10.6708 27.7464 10.4558 27.6662 10.2105C27.585 9.9653 27.5632 9.71484 27.6006 9.45916C27.7318 8.45522 27.8838 7.45336 28.0253 6.44942C28.0774 6.08834 28.1232 5.72621 28.1721 5.36304C28.0857 5.33799 28.0409 5.32234 27.9962 5.31295C26.7366 5.06249 25.4771 4.80054 24.2144 4.56991C23.9459 4.52608 23.7012 4.42276 23.4816 4.26205C23.262 4.10029 23.0902 3.89783 22.9674 3.65467C22.7592 3.28002 22.5656 2.89702 22.3657 2.5182C21.9379 1.71045 21.509 0.903754 21.0635 0.0657466C19.8154 0.637637 18.6037 1.18761 17.3952 1.75115C17.1433 1.87952 16.8768 1.94318 16.5937 1.94109C16.3116 1.939 16.0461 1.87326 15.7963 1.74176C14.8105 1.25336 13.8206 0.774348 12.8317 0.293251C12.6329 0.195152 12.4341 0.101229 12.2196 0C12.1457 0.129406 12.0822 0.236896 12.0219 0.346474C11.4452 1.3859 10.8633 2.42219 10.2939 3.46474C10.1617 3.72564 9.97745 3.94271 9.74011 4.1149C9.50382 4.28605 9.24046 4.39354 8.95108 4.43841C7.74358 4.64818 6.53817 4.87255 5.32755 5.06979C5.03921 5.11675 4.96947 5.21798 5.00798 5.50288C5.1662 6.6905 5.28279 7.88333 5.45038 9.06989C5.50659 9.37776 5.48681 9.67935 5.39105 9.97678C5.29632 10.2742 5.13602 10.5309 4.91221 10.748C4.07529 11.6069 3.25607 12.4804 2.42956 13.3476C2.36398 13.4175 2.30257 13.4895 2.23282 13.5678C2.30881 13.6555 2.37023 13.7306 2.43477 13.8016C3.26128 14.7095 4.08883 15.6174 4.91638 16.5233C5.10271 16.7163 5.23595 16.9397 5.31714 17.1953C5.39833 17.45 5.41707 17.7098 5.37543 17.9749ZM16.4719 4.8809C16.7592 4.8809 17.0465 4.89447 17.3317 4.92264C17.618 4.95082 17.9022 4.99256 18.1842 5.04787C18.4653 5.10423 18.7443 5.17415 19.0191 5.25764C19.2939 5.34113 19.5645 5.43714 19.83 5.54671C20.0954 5.65733 20.3546 5.77944 20.6076 5.9151C20.8616 6.05077 21.1072 6.19792 21.3466 6.35759C21.5861 6.51726 21.8161 6.68841 22.0378 6.87104C22.2606 7.05367 22.4729 7.24569 22.6759 7.44919C22.8799 7.65269 23.0725 7.86558 23.2547 8.08787C23.4368 8.31016 23.6076 8.54079 23.7679 8.77977C23.9271 9.01876 24.0749 9.26505 24.2103 9.51864C24.3456 9.77223 24.4684 10.0321 24.5788 10.2972C24.6881 10.5633 24.7849 10.8336 24.8681 11.1091C24.9514 11.3835 25.0212 11.6622 25.0774 11.944C25.1336 12.2268 25.1763 12.5106 25.2044 12.7966C25.2325 13.0825 25.246 13.3695 25.246 13.6575C25.246 13.9445 25.2325 14.2315 25.2033 14.5175C25.1752 14.8045 25.1336 15.0883 25.0774 15.3701C25.0212 15.6519 24.9514 15.9305 24.8681 16.206C24.7849 16.4805 24.6881 16.7518 24.5777 17.0169C24.4674 17.283 24.3446 17.5418 24.2092 17.7954C24.0739 18.049 23.9261 18.2953 23.7668 18.5343C23.6065 18.7733 23.4358 19.0039 23.2536 19.2262C23.0715 19.4485 22.8789 19.6614 22.6749 19.8649C22.4719 20.0684 22.2595 20.2604 22.0368 20.443C21.8151 20.6256 21.584 20.7957 21.3456 20.9554C21.1062 21.1151 20.8605 21.2633 20.6065 21.3979C20.3536 21.5336 20.0933 21.6567 19.8279 21.7663C19.5625 21.8759 19.2929 21.9729 19.017 22.0564C18.7422 22.1399 18.4643 22.2088 18.1822 22.2651C17.9001 22.3204 17.6169 22.3632 17.3307 22.3904C17.0444 22.4185 16.7582 22.4321 16.4709 22.4321C16.1836 22.4321 15.8973 22.4175 15.611 22.3893C15.3248 22.3611 15.0416 22.3183 14.7595 22.262C14.4774 22.2056 14.1995 22.1357 13.9247 22.0522C13.6499 21.9687 13.3793 21.8717 13.1138 21.7611C12.8494 21.6504 12.5902 21.5273 12.3362 21.3916C12.0833 21.256 11.8376 21.1078 11.5982 20.9481C11.3598 20.7884 11.1298 20.6173 10.908 20.4347C10.6853 20.252 10.4729 20.059 10.27 19.8555C10.067 19.6509 9.87543 19.438 9.69327 19.2157C9.5111 18.9935 9.34039 18.7628 9.18112 18.5228C9.02186 18.2838 8.87405 18.0375 8.73976 17.7839C8.60444 17.5303 8.48161 17.2705 8.37231 17.0044C8.26301 16.7382 8.1662 16.4679 8.08293 16.1924C8.00069 15.9169 7.93095 15.6383 7.87474 15.3565C7.81957 15.0747 7.77793 14.7909 7.74983 14.5039C7.72276 14.218 7.70819 13.931 7.70923 13.644C7.71027 13.357 7.72484 13.07 7.75399 12.7851C7.7821 12.4992 7.82477 12.2163 7.88099 11.9346C7.93824 11.6538 8.00798 11.3752 8.0923 11.1007C8.17557 10.8263 8.27238 10.557 8.38272 10.2919C8.49306 10.0269 8.61589 9.76806 8.75121 9.51551C8.88654 9.26296 9.03435 9.01667 9.19362 8.77873C9.35288 8.53975 9.52359 8.31016 9.70576 8.08787C9.88793 7.86663 10.0805 7.65478 10.2835 7.45128C10.4865 7.24882 10.6988 7.0568 10.9195 6.87417C11.1412 6.69258 11.3713 6.52143 11.6096 6.36176C11.848 6.20314 12.0937 6.05494 12.3466 5.92032C12.5996 5.78465 12.8588 5.66151 13.1232 5.55193C13.3876 5.44235 13.6572 5.3453 13.932 5.26181C14.2058 5.17832 14.4837 5.1084 14.7647 5.05205C15.0458 4.99569 15.3289 4.95291 15.6142 4.92473C15.8994 4.89551 16.1856 4.8809 16.4719 4.8809ZM16.4209 20.6862C16.6509 20.6872 16.881 20.6778 17.11 20.6569C17.339 20.6361 17.567 20.6048 17.7929 20.5609C18.0187 20.5181 18.2425 20.4639 18.4632 20.3992C18.6839 20.3334 18.9015 20.2572 19.1149 20.1706C19.3282 20.084 19.5364 19.988 19.7405 19.8805C19.9445 19.773 20.1423 19.6572 20.3348 19.5299C20.5264 19.4036 20.7127 19.2679 20.8917 19.1229C21.0708 18.9778 21.2415 18.8254 21.406 18.6637C21.5694 18.5019 21.7255 18.3318 21.8723 18.1554C22.0201 17.978 22.1586 17.7944 22.2876 17.6034C22.4167 17.4134 22.5364 17.2162 22.6468 17.0137C22.7561 16.8113 22.856 16.6047 22.9455 16.3918C23.035 16.1799 23.1142 15.9639 23.1829 15.7437C23.2516 15.5235 23.3088 15.3012 23.3557 15.0758C23.4015 14.8504 23.4368 14.6229 23.4608 14.3933C23.4858 14.1647 23.4983 13.9341 23.4993 13.7045C23.5014 13.4739 23.492 13.2443 23.4702 13.0147C23.4493 12.7851 23.4171 12.5576 23.3744 12.3311C23.3307 12.1047 23.2765 11.8813 23.211 11.6601C23.1454 11.4389 23.0694 11.2218 22.983 11.0089C22.8966 10.795 22.7998 10.5862 22.6926 10.3827C22.5854 10.1792 22.4688 9.98095 22.3418 9.78789C22.2148 9.59587 22.0795 9.41011 21.9348 9.23061C21.7901 9.05215 21.636 8.881 21.4747 8.71611C21.3133 8.55227 21.1437 8.39678 20.9667 8.24963C20.7897 8.10248 20.6055 7.96368 20.415 7.83532C20.2245 7.70591 20.0278 7.5859 19.8258 7.47632C19.6239 7.36675 19.4167 7.26656 19.2044 7.17681C18.992 7.08811 18.7765 7.00879 18.5559 6.94096C18.3362 6.87208 18.1135 6.81468 17.8886 6.76876C17.6627 6.7218 17.4358 6.68736 17.2068 6.66336C16.9778 6.63936 16.7477 6.62684 16.5177 6.62475C16.2876 6.6237 16.0586 6.6331 15.8286 6.65501C15.5996 6.67588 15.3716 6.70824 15.1457 6.75207C14.9198 6.7959 14.6971 6.85017 14.4764 6.91591C14.2557 6.98062 14.0382 7.05784 13.8248 7.14446C13.6124 7.23108 13.4032 7.32813 13.2002 7.43562C12.9962 7.54311 12.7984 7.66 12.6058 7.78731C12.4143 7.91359 12.229 8.0503 12.05 8.19536C11.8709 8.34042 11.7002 8.49383 11.5368 8.65559C11.3723 8.81734 11.2172 8.98745 11.0704 9.16486C10.9237 9.34227 10.7852 9.52595 10.6561 9.71692C10.5271 9.9079 10.4084 10.1041 10.2981 10.3066C10.1888 10.5101 10.0888 10.7167 10.0003 10.9296C9.91083 11.1414 9.83171 11.3575 9.76405 11.5777C9.69639 11.7979 9.63914 12.0212 9.59334 12.2466C9.5465 12.472 9.51214 12.6995 9.4882 12.9291C9.46426 13.1587 9.45177 13.3883 9.45073 13.6179C9.44969 13.8485 9.46114 14.0771 9.483 14.3056C9.50486 14.5342 9.53817 14.7617 9.58189 14.9871C9.62665 15.2125 9.68078 15.4348 9.7474 15.655C9.81298 15.8752 9.88897 16.0912 9.97641 16.3041C10.0638 16.516 10.1607 16.7236 10.2679 16.9271C10.3751 17.1296 10.4917 17.3279 10.6187 17.5188C10.7446 17.7109 10.8799 17.8956 11.0246 18.074C11.1693 18.2525 11.3223 18.4236 11.4837 18.5864C11.645 18.7503 11.8137 18.9058 11.9896 19.0529C12.1655 19.199 12.3487 19.3378 12.5392 19.4662C12.7287 19.5956 12.9244 19.7156 13.1263 19.8252C13.3272 19.9348 13.5333 20.035 13.7446 20.1247C13.9559 20.2145 14.1714 20.2938 14.39 20.3626C14.6086 20.4315 14.8303 20.4889 15.0552 20.5359C15.28 20.5839 15.5059 20.6194 15.7349 20.6444C15.9629 20.6695 16.1908 20.683 16.4209 20.6862ZM12.4643 13.3706C12.5101 13.3236 12.5611 13.2818 12.6162 13.2453C12.6714 13.2088 12.7287 13.1785 12.7901 13.1545C12.8515 13.1305 12.915 13.1128 12.9795 13.1013C13.0441 13.0898 13.1096 13.0857 13.1752 13.0877C13.2408 13.0898 13.3064 13.0982 13.3699 13.1138C13.4344 13.1295 13.4958 13.1514 13.5552 13.1806C13.6145 13.2088 13.6707 13.2422 13.7228 13.2829C13.7759 13.3225 13.8237 13.3674 13.8664 13.4175C14.2765 13.8203 14.6731 14.2326 15.0999 14.6657L17.6721 12.0859C18.1322 11.6236 18.5933 11.1623 19.0545 10.701C19.0972 10.6499 19.144 10.604 19.196 10.5633C19.2481 10.5215 19.3043 10.4871 19.3636 10.4568C19.423 10.4276 19.4844 10.4047 19.5489 10.388C19.6124 10.3713 19.678 10.3608 19.7446 10.3587C19.8102 10.3556 19.8758 10.3587 19.9414 10.3692C20.0069 10.3807 20.0704 10.3973 20.1329 10.4214C20.1943 10.4454 20.2526 10.4756 20.3088 10.5111C20.364 10.5476 20.415 10.5894 20.4629 10.6363C20.5097 10.6823 20.5514 10.7344 20.5878 10.7897C20.6232 10.8451 20.6534 10.9035 20.6783 10.9651C20.7023 11.0266 20.72 11.0903 20.7304 11.156C20.7408 11.2218 20.745 11.2875 20.7429 11.3533C20.7398 11.4201 20.7304 11.4848 20.7137 11.5495C20.6971 11.6142 20.6742 11.6758 20.645 11.7352C20.6159 11.7947 20.5805 11.85 20.5399 11.9022C20.4983 11.9544 20.4525 12.0024 20.4025 12.0452C18.8796 13.5761 17.3525 15.1061 15.8223 16.6328C15.7776 16.684 15.7287 16.7299 15.6745 16.7706C15.6204 16.8113 15.5632 16.8447 15.5017 16.8729C15.4403 16.901 15.3768 16.923 15.3112 16.9365C15.2446 16.9511 15.178 16.9584 15.1103 16.9584C15.0427 16.9584 14.9761 16.9511 14.9105 16.9365C14.8439 16.923 14.7804 16.901 14.7189 16.8729C14.6575 16.8447 14.6003 16.8113 14.5461 16.7706C14.492 16.7299 14.4431 16.684 14.3983 16.6328C13.7686 16.0098 13.144 15.3826 12.5246 14.7523C12.4757 14.7095 12.433 14.6625 12.3935 14.6103C12.355 14.5592 12.3217 14.5039 12.2946 14.4455C12.2665 14.3881 12.2446 14.3275 12.229 14.2649C12.2134 14.2023 12.204 14.1386 12.2019 14.0739C12.1988 14.0092 12.2019 13.9456 12.2124 13.8819C12.2228 13.8183 12.2384 13.7556 12.2613 13.6951C12.2842 13.6346 12.3123 13.5772 12.3466 13.5229C12.381 13.4676 12.4195 13.4175 12.4643 13.3706ZM32.2942 33.4848C32.5191 33.8804 32.7418 34.278 33 34.7351H32.5899C30.7599 34.7351 28.9289 34.7413 27.0978 34.7309C26.999 34.7236 26.9001 34.7309 26.8033 34.7528C26.7054 34.7758 26.6138 34.8112 26.5274 34.8613C26.441 34.9114 26.364 34.973 26.2963 35.046C26.2276 35.1191 26.1724 35.2005 26.1287 35.2902C25.3178 36.7555 24.4892 38.2123 23.669 39.6713C23.6169 39.7631 23.5618 39.8529 23.4754 40L17.8293 30.1944C17.6783 29.9825 17.4899 29.8124 17.2641 29.684C17.0382 29.5557 16.7956 29.4805 16.5364 29.4586C16.2346 29.4545 15.9483 29.5212 15.6787 29.658C15.4091 29.7957 15.1874 29.9888 15.0135 30.2372C12.2238 35.0554 11.1339 36.9788 10.7967 37.6123C10.703 37.7886 10.2575 38.5557 9.661 39.5888C9.61416 39.6702 9.56107 39.7485 9.49237 39.8591L7.92471 37.1499C7.5635 36.5259 7.19813 35.9049 6.84316 35.2777C6.79945 35.1901 6.74323 35.1118 6.67661 35.0408C6.60895 34.9699 6.534 34.9093 6.44865 34.8613C6.36433 34.8123 6.27481 34.7768 6.17904 34.7549C6.08432 34.733 5.98855 34.7246 5.8907 34.7309C4.05031 34.7413 2.20992 34.7351 0.369535 34.734H0C0.0582929 34.6203 0.0947258 34.5378 0.138446 34.4585C2.05795 31.0585 3.97641 27.6584 5.89278 24.2584C5.9084 24.2167 5.9313 24.1791 5.96148 24.1457C5.99167 24.1123 6.02706 24.0872 6.06766 24.0685C6.1093 24.0497 6.15198 24.0392 6.19674 24.0372C6.2415 24.0351 6.28522 24.0424 6.32686 24.058C6.98369 24.1926 7.6499 24.2876 8.30673 24.4222C8.4535 24.4609 8.56801 24.5443 8.64816 24.6727C9.24983 25.7528 9.83692 26.8423 10.424 27.9298C10.4729 28.0425 10.5323 28.1489 10.6031 28.2491C10.6738 28.3482 10.755 28.4401 10.8446 28.5236C10.9351 28.6071 11.0319 28.6801 11.1371 28.7427C11.2432 28.8053 11.3536 28.8565 11.4691 28.8961C11.5857 28.9358 11.7044 28.9629 11.8251 28.9775C11.9469 28.9921 12.0687 28.9942 12.1915 28.9828C12.3133 28.9723 12.433 28.9494 12.5496 28.9128C12.6672 28.8773 12.7797 28.8304 12.8869 28.7709C13.5344 28.4829 14.084 28.2731 14.543 28.008C15.001 27.744 15.4924 27.5614 15.9483 27.2984C16.0857 27.2149 16.2346 27.1721 16.3949 27.17C16.5062 27.17 16.6114 27.194 16.7124 27.241C17.7835 27.7743 18.8723 28.2721 19.933 28.8283C20.0434 28.8878 20.1589 28.9358 20.2786 28.9723C20.3983 29.0088 20.5201 29.0328 20.645 29.0443C20.77 29.0568 20.8938 29.0558 21.0187 29.0422C21.1426 29.0297 21.2644 29.0036 21.3841 28.9661C21.5038 28.9285 21.6183 28.8794 21.7276 28.8189C21.8369 28.7584 21.9389 28.6874 22.0347 28.606C22.1294 28.5246 22.2158 28.4349 22.2929 28.3357C22.3699 28.2376 22.4375 28.1322 22.4927 28.0206C23.0319 26.9519 23.6513 25.9229 24.2228 24.871C24.2613 24.7875 24.3175 24.7197 24.3924 24.6654C24.4674 24.6122 24.5496 24.5798 24.6412 24.5694C25.3439 24.4525 26.0413 24.3273 26.7377 24.1864C26.7752 24.1718 26.8137 24.1655 26.8532 24.1666C26.8938 24.1676 26.9323 24.177 26.9688 24.1937C27.0052 24.2104 27.0364 24.2323 27.0645 24.2615C27.0916 24.2907 27.1124 24.3241 27.126 24.3617C28.8404 27.4059 30.5632 30.4459 32.2942 33.4848Z" fill="#3A2215"/>
</svg>
