<svg width="61" height="61" viewBox="0 0 61 61" fill="none" xmlns="http://www.w3.org/2000/svg">
<g filter="url(#filter0_d_1_993)">
<g clip-path="url(#clip0_1_993)">
<rect x="4" width="53" height="53" rx="26.5" fill="white"/>
<g clip-path="url(#clip1_1_993)">
<rect width="64.0417" height="43.0625" transform="translate(-1.52148 5.52075)" fill="white"/>
<mask id="mask0_1_993" style="mask-type:luminance" maskUnits="userSpaceOnUse" x="14" y="34" width="34" height="6">
<path d="M14.4121 34.5298H47.5762V39.1206H14.4121V34.5298Z" fill="white"/>
</mask>
<g mask="url(#mask0_1_993)">
<path d="M30.9883 34.5885C30.9875 34.5885 30.986 34.5885 30.9853 34.5885C30.9838 34.5885 30.9831 34.5885 30.9816 34.5885C30.9764 34.5885 30.972 34.5885 30.9668 34.5885C22.3767 34.5885 16.4686 35.7837 14.5254 36.855C16.4708 37.9205 22.3723 39.112 30.955 39.1221H31.0157C39.5984 39.112 45.4998 37.9205 47.4452 36.855C45.502 35.7837 39.5939 34.5885 31.0038 34.5885C30.9986 34.5885 30.9935 34.5885 30.9883 34.5885Z" fill="#3A2215"/>
</g>
<mask id="mask1_1_993" style="mask-type:luminance" maskUnits="userSpaceOnUse" x="7" y="14" width="48" height="23">
<path d="M7.17969 14.5048H54.7939V36.1987H7.17969V14.5048Z" fill="white"/>
</mask>
<g mask="url(#mask1_1_993)">
<path d="M52.4246 23.8936C51.9938 24.2478 52.0567 24.5354 51.9375 24.8548C51.8717 25.0308 51.7976 25.2604 51.4749 25.5379C51.4749 25.5379 47.3153 29.7506 44.5297 28.8488C40.4019 27.5117 42.6671 22.3175 42.6671 22.3175L43.0928 21.4062C43.3045 20.9521 43.9367 20.7652 44.1928 20.6124C44.6592 20.3349 44.8132 20.4298 45.0893 19.8381C45.5372 18.8805 45.1182 17.1891 44.9834 16.8342C44.5867 17.037 42.9462 17.9236 42.4991 18.8819C42.223 19.4737 42.5672 19.8178 42.6953 20.2654C42.7648 20.5117 42.8744 20.8289 42.6627 21.2831L42.2378 22.1943C42.2378 22.1943 39.6964 27.185 35.9055 27.2183C31.2744 27.2589 31.2573 19.8888 31.2573 19.8888C31.2573 19.347 31.5438 19.0449 31.7496 18.8073C32.1235 18.3742 32.6846 18.1163 32.6846 17.4093C32.6846 16.2953 31.3935 14.914 31.0175 14.5352V14.5279C31.0101 14.5207 31.0005 14.5105 30.9938 14.504C30.9931 14.5055 30.9916 14.5069 30.9901 14.5077C30.9894 14.5069 30.9879 14.5055 30.9871 14.5048C30.9857 14.5055 30.9849 14.5069 30.9834 14.5077C30.9827 14.5069 30.9812 14.5055 30.9805 14.504C30.9738 14.5105 30.9642 14.5207 30.9568 14.5279V14.5352C30.5807 14.914 29.2897 16.2953 29.2897 17.4093C29.2897 18.1163 29.8508 18.3742 30.2247 18.8073C30.4297 19.0449 30.7169 19.347 30.7169 19.8888C30.7169 19.8888 30.6999 27.2589 26.068 27.2183C22.2779 27.185 19.7365 22.1943 19.7365 22.1943L19.3116 21.2831C19.0999 20.8289 19.2087 20.5117 19.279 20.2654C19.4071 19.8178 19.7513 19.4737 19.4752 18.8819C19.0281 17.9236 17.3869 17.037 16.9908 16.8342C16.8554 17.1891 16.4371 18.8805 16.8842 19.8381C17.1604 20.4298 17.3151 20.3349 17.7807 20.6124C18.0368 20.7652 18.6698 20.9521 18.8815 21.4062L19.3071 22.3175C19.3071 22.3175 21.5724 27.5117 17.4446 28.8488C14.659 29.7506 10.4994 25.5379 10.4994 25.5379C10.1767 25.2604 10.1026 25.0308 10.0367 24.8548C9.91756 24.5354 9.98048 24.2478 9.54964 23.8936C8.80641 23.2837 7.47096 22.9201 7.19336 22.8564C7.26813 23.115 7.84184 24.3608 8.52289 24.9454C8.94336 25.3061 9.33866 25.1851 9.69251 25.3973C13.6433 27.7724 13.9572 36.056 13.9572 36.056H13.9913C14.5405 34.7913 21.9262 33.5078 30.962 33.5078C30.9657 33.5078 31.0086 33.5078 31.0123 33.5078C40.0481 33.5078 47.433 34.7913 47.9823 36.056H48.0171C48.0171 36.056 48.3309 27.7724 52.2818 25.3973C52.6349 25.1851 53.0302 25.3061 53.4507 24.9454C54.1317 24.3608 54.7054 23.115 54.7809 22.8564C54.5033 22.9201 53.1679 23.2837 52.4246 23.8936Z" fill="#3A2215"/>
</g>
</g>
</g>
</g>
<defs>
<filter id="filter0_d_1_993" x="0" y="0" width="61" height="61" filterUnits="userSpaceOnUse" color-interpolation-filters="sRGB">
<feFlood flood-opacity="0" result="BackgroundImageFix"/>
<feColorMatrix in="SourceAlpha" type="matrix" values="0 0 0 0 0 0 0 0 0 0 0 0 0 0 0 0 0 0 127 0" result="hardAlpha"/>
<feOffset dy="4"/>
<feGaussianBlur stdDeviation="2"/>
<feComposite in2="hardAlpha" operator="out"/>
<feColorMatrix type="matrix" values="0 0 0 0 0 0 0 0 0 0 0 0 0 0 0 0 0 0 0.25 0"/>
<feBlend mode="normal" in2="BackgroundImageFix" result="effect1_dropShadow_1_993"/>
<feBlend mode="normal" in="SourceGraphic" in2="effect1_dropShadow_1_993" result="shape"/>
</filter>
<clipPath id="clip0_1_993">
<rect x="4" width="53" height="53" rx="26.5" fill="white"/>
</clipPath>
<clipPath id="clip1_1_993">
<rect width="64.0417" height="43.0625" fill="white" transform="translate(-1.52148 5.52075)"/>
</clipPath>
</defs>
</svg>
