<svg width="64" height="56" viewBox="0 0 64 56" fill="none" xmlns="http://www.w3.org/2000/svg">
<path d="M58.2192 5.77399C56.7043 4.2605 54.9056 3.05989 52.9258 2.24075C50.9461 1.42161 48.8242 1 46.6812 1C44.5383 1 42.4163 1.42161 40.4366 2.24075C38.4569 3.05989 36.6582 4.2605 35.1432 5.77399L31.9992 8.91356L28.8552 5.77399C25.7951 2.71827 21.6448 1.00158 17.3172 1.00158C12.9896 1.00158 8.83926 2.71827 5.77919 5.77399C2.71913 8.82971 1 12.9742 1 17.2956C1 21.617 2.71913 25.7615 5.77919 28.8172L8.92322 31.9568L31.9992 55L55.0752 31.9568L58.2192 28.8172C59.7349 27.3044 60.9372 25.5083 61.7575 23.5314C62.5778 21.5544 63 19.4355 63 17.2956C63 15.1557 62.5778 13.0368 61.7575 11.0598C60.9372 9.08293 59.7349 7.28678 58.2192 5.77399Z" fill="#89D3D2" stroke="#3A2215" stroke-width="2" stroke-linecap="round" stroke-linejoin="round"/>
</svg>
