<svg width="15" height="14" viewBox="0 0 15 14" fill="none" xmlns="http://www.w3.org/2000/svg">
<path d="M6.80317 0.453854C7.06098 -0.151285 7.93905 -0.151285 8.19686 0.453856L9.71844 4.0255C9.82719 4.28061 10.0729 4.45492 10.355 4.477L14.3045 4.78613C14.9737 4.8385 15.245 5.65379 14.7352 6.08016L11.7261 8.59665C11.5112 8.77643 11.4173 9.05848 11.4829 9.3272L12.4023 13.0899C12.558 13.7274 11.8477 14.2313 11.2748 13.8897L7.89342 11.8733C7.65189 11.7293 7.34814 11.7293 7.10663 11.8733L3.72525 13.8897C3.15234 14.2313 2.44197 13.7274 2.59773 13.0899L3.51708 9.3272C3.58274 9.05848 3.48888 8.77643 3.27395 8.59665L0.264797 6.08016C-0.245039 5.65379 0.026301 4.8385 0.69547 4.78613L4.64503 4.477C4.92714 4.45492 5.17288 4.28061 5.28156 4.0255L6.80317 0.453854Z" fill="#C9B079"/>
</svg>
