<svg width="61" height="61" viewBox="0 0 61 61" fill="none" xmlns="http://www.w3.org/2000/svg">
<g filter="url(#filter0_d_1_971)">
<g clip-path="url(#clip0_1_971)">
<rect x="4" width="53" height="53" rx="26.5" fill="white"/>
<rect width="64.0417" height="43.0625" transform="translate(-1.52148 5.52075)" fill="white"/>
<mask id="mask0_1_971" style="mask-type:luminance" maskUnits="userSpaceOnUse" x="6" y="11" width="47" height="31">
<path d="M6.57812 11.1539H52.6147V41.8939H6.57812V11.1539Z" fill="white"/>
</mask>
<g mask="url(#mask0_1_971)">
<path d="M47.2989 20.2498H41.4337C41.4051 20.251 41.3764 20.2486 41.3484 20.2432C41.3204 20.2378 41.2935 20.2295 41.2673 20.2181C41.2411 20.2067 41.2162 20.1929 41.193 20.1761C41.1698 20.1594 41.1491 20.1408 41.1302 20.1192C41.1113 20.0983 41.0955 20.0749 41.0821 20.0503C41.0681 20.0252 41.0577 19.9994 41.0498 19.9725C41.0419 19.9455 41.0376 19.9174 41.0358 19.8892C41.0346 19.8616 41.0358 19.8335 41.0407 19.8059L41.8493 13.6939C41.8535 13.6663 41.8554 13.6387 41.8542 13.6106C41.8523 13.5824 41.8481 13.5549 41.8401 13.5279C41.8322 13.501 41.8219 13.4752 41.8085 13.4506C41.7951 13.4261 41.7792 13.4027 41.7603 13.3818C41.7414 13.3602 41.7207 13.3416 41.6982 13.3248C41.675 13.3081 41.6506 13.2937 41.6244 13.2823C41.5988 13.2709 41.5714 13.2625 41.5434 13.2572C41.516 13.2518 41.4873 13.2494 41.4587 13.25H15.4423C15.3375 13.2524 15.2339 13.2643 15.1309 13.2847C15.0285 13.3051 14.9286 13.3344 14.8311 13.3722C14.7336 13.4099 14.6404 13.4554 14.5508 13.5094C14.4618 13.5633 14.3777 13.6244 14.2997 13.6927C14.2211 13.761 14.1492 13.8352 14.084 13.9161C14.0188 13.9964 13.9615 14.082 13.9116 14.1725C13.8616 14.263 13.8196 14.357 13.7867 14.4547C13.7531 14.5523 13.7288 14.6523 13.7135 14.7542L13.5508 15.9822H23.5804C23.6743 15.9798 23.7681 15.9876 23.8601 16.0056C23.9527 16.0236 24.0423 16.0511 24.1282 16.0883C24.2148 16.1254 24.2958 16.1715 24.372 16.2266C24.4476 16.2811 24.517 16.344 24.5786 16.4135C24.6407 16.4836 24.6943 16.5591 24.7388 16.6406C24.7839 16.722 24.8193 16.8077 24.8449 16.897C24.8711 16.9862 24.8863 17.0767 24.8918 17.1695C24.8973 17.2618 24.8918 17.354 24.8766 17.4457C24.8613 17.5445 24.8376 17.6416 24.8053 17.7368C24.7723 17.8315 24.7315 17.9231 24.6828 18.0112C24.634 18.0993 24.578 18.1819 24.5146 18.2604C24.4512 18.3389 24.3811 18.4114 24.305 18.4778C24.2282 18.5437 24.1465 18.6031 24.06 18.6558C23.9729 18.7079 23.8821 18.7528 23.7876 18.7894C23.6925 18.8259 23.595 18.8547 23.4957 18.8744C23.3958 18.8942 23.2946 18.9056 23.1929 18.9086H9.54911C9.48086 18.9092 9.41383 18.9158 9.34741 18.9283C9.28038 18.9403 9.21517 18.9583 9.1518 18.9822C9.08843 19.0062 9.0281 19.035 8.9696 19.0697C8.91171 19.1039 8.85687 19.1434 8.80568 19.1871C8.75449 19.2309 8.70818 19.2794 8.66552 19.3315C8.62348 19.3836 8.5857 19.4387 8.5534 19.4974C8.5211 19.5561 8.49429 19.6172 8.47296 19.6807C8.45164 19.7436 8.43579 19.8083 8.42665 19.8748V19.9024C8.4169 19.9617 8.41386 20.0216 8.41751 20.0821C8.42117 20.142 8.43153 20.2013 8.44859 20.2594C8.46504 20.3169 8.4882 20.3726 8.51745 20.426C8.54609 20.4787 8.58082 20.5278 8.62104 20.5739C8.66126 20.6194 8.70574 20.6602 8.7551 20.6961C8.80385 20.7321 8.85687 20.7626 8.91232 20.7872C8.96838 20.8117 9.02627 20.8303 9.0866 20.8429C9.14632 20.8549 9.20725 20.8609 9.26819 20.8603H22.943C23.0375 20.8579 23.1307 20.8651 23.2233 20.883C23.3153 20.901 23.4049 20.9286 23.4915 20.9657C23.5774 21.0028 23.6584 21.049 23.7346 21.1041C23.8102 21.1592 23.879 21.2215 23.9412 21.2916C24.0027 21.3611 24.0563 21.4371 24.1008 21.5186C24.1459 21.6001 24.1807 21.6857 24.2062 21.7744C24.2318 21.8637 24.2477 21.9547 24.2526 22.047C24.2574 22.1398 24.2526 22.2315 24.2367 22.3231C24.2215 22.4226 24.1977 22.5196 24.1654 22.6143C24.1331 22.7095 24.0923 22.8012 24.0435 22.8892C23.9948 22.9773 23.9387 23.0606 23.8754 23.139C23.812 23.2169 23.7419 23.2894 23.6657 23.3559C23.589 23.4224 23.5073 23.4817 23.4208 23.5338C23.3336 23.5865 23.2428 23.6309 23.1478 23.6674C23.0533 23.7039 22.9558 23.7327 22.8559 23.7525C22.7559 23.7722 22.6548 23.7836 22.553 23.786H12.4113C12.3449 23.7878 12.2791 23.7956 12.2133 23.8088C12.1481 23.8219 12.0847 23.8405 12.0225 23.8645C11.961 23.8884 11.9013 23.9178 11.8446 23.9519C11.7879 23.9861 11.7343 24.025 11.6843 24.0688C11.6344 24.1119 11.5887 24.1592 11.5472 24.2107C11.5058 24.2622 11.4692 24.3168 11.4375 24.3743C11.4059 24.4318 11.379 24.4917 11.3577 24.5534C11.337 24.6157 11.3212 24.6792 11.3114 24.7439V24.7714C11.3017 24.8313 11.2986 24.8912 11.3023 24.9511C11.3059 25.0117 11.3163 25.0704 11.3333 25.1285C11.3498 25.1866 11.3729 25.2423 11.4022 25.295C11.4314 25.3483 11.4656 25.3974 11.5058 25.443C11.546 25.4885 11.5905 25.5292 11.6399 25.5658C11.6886 25.6017 11.7416 25.6317 11.7971 25.6568C11.8531 25.6814 11.911 25.7 11.9713 25.7119C12.0311 25.7245 12.092 25.7305 12.1529 25.7293H22.2977C22.3909 25.7281 22.4836 25.7365 22.575 25.7545C22.6664 25.773 22.7547 25.8012 22.84 25.8383C22.9247 25.8755 23.0052 25.9216 23.0801 25.9767C23.1551 26.0312 23.2233 26.0929 23.2843 26.1624C23.3452 26.2319 23.3982 26.3068 23.4427 26.3877C23.4872 26.4685 23.5219 26.553 23.5475 26.6411C23.5731 26.7291 23.5883 26.819 23.5938 26.9106C23.5999 27.0023 23.595 27.0933 23.5804 27.1844C23.5652 27.2832 23.5414 27.3803 23.5091 27.4755C23.4768 27.5708 23.436 27.6624 23.3879 27.7505C23.3391 27.8386 23.2831 27.9218 23.2191 28.0003C23.1557 28.0788 23.0856 28.1513 23.0094 28.2178C22.9333 28.2842 22.8516 28.3436 22.7645 28.3957C22.6773 28.4478 22.5865 28.4927 22.4915 28.5293C22.3964 28.5658 22.2989 28.594 22.199 28.6137C22.099 28.6335 21.9985 28.6449 21.8967 28.6473H11.0616C10.9951 28.6491 10.9287 28.6569 10.8635 28.67C10.7983 28.6826 10.7349 28.7018 10.6728 28.7257C10.6106 28.7497 10.5515 28.7791 10.4948 28.8132C10.4382 28.8474 10.3846 28.8863 10.3346 28.93C10.2846 28.9732 10.2389 29.0205 10.1975 29.072C10.156 29.1229 10.1195 29.1774 10.0878 29.2349C10.0561 29.2924 10.0293 29.3523 10.008 29.4146C9.98724 29.4769 9.9714 29.5404 9.96165 29.6051C9.9519 29.6644 9.94885 29.7244 9.95251 29.7849C9.95617 29.8448 9.96653 29.9041 9.98359 29.9622C10 30.0197 10.0232 30.0754 10.0524 30.1287C10.0811 30.1814 10.1158 30.2311 10.156 30.2767C10.1963 30.3222 10.2407 30.3629 10.2901 30.3989C10.3388 30.4348 10.3919 30.4654 10.4473 30.4899C10.5034 30.5151 10.5613 30.5331 10.6216 30.5456C10.6813 30.5582 10.7423 30.5636 10.8032 30.563H11.6143L11.1286 34.2813C11.1127 34.3754 11.1073 34.47 11.1127 34.5647C11.1182 34.6599 11.1341 34.7534 11.1603 34.845C11.1865 34.9367 11.223 35.0247 11.2687 35.1086C11.3151 35.1925 11.3699 35.2703 11.4333 35.3422C11.4966 35.4141 11.5673 35.4782 11.6453 35.5345C11.7233 35.5908 11.8068 35.6387 11.8958 35.6771C11.9841 35.7154 12.0762 35.7436 12.1712 35.7621C12.2663 35.7801 12.362 35.7879 12.4588 35.7855H14.5216C14.1486 38.5849 16.1577 40.854 19.0035 40.854C21.8486 40.854 24.4561 38.5849 24.829 35.7855H35.5996C35.2291 38.5849 37.2382 40.854 40.0894 40.854C42.9407 40.854 45.5421 38.5849 45.9126 35.7855H48.7802C48.8436 35.7837 48.9039 35.7717 48.9624 35.7484C49.0209 35.7256 49.074 35.6933 49.1203 35.6519C49.1672 35.61 49.2056 35.5621 49.2348 35.5076C49.2641 35.4524 49.283 35.3943 49.2915 35.3332L50.3743 27.1646L47.2989 20.2498ZM22.7523 35.885C22.7157 36.0814 22.6633 36.2737 22.5945 36.4618C22.525 36.6499 22.4409 36.8308 22.341 37.0052C22.241 37.1795 22.1271 37.3442 21.9991 37.4994C21.8718 37.6545 21.7316 37.7989 21.5793 37.9313C21.4269 38.0631 21.2648 38.1823 21.0924 38.2883C20.9193 38.3938 20.7395 38.4848 20.5513 38.5609C20.3636 38.637 20.1704 38.6969 19.9724 38.7412C19.7743 38.7855 19.5738 38.8137 19.3709 38.8251C19.2691 38.8311 19.1674 38.8311 19.0656 38.8263C18.9638 38.8209 18.8627 38.8095 18.7621 38.7927C18.6616 38.776 18.5623 38.7538 18.4642 38.7256C18.3667 38.6975 18.2704 38.6645 18.1765 38.6256C18.0827 38.5867 17.9913 38.5429 17.9023 38.4938C17.8134 38.4447 17.7274 38.3908 17.6452 38.3321C17.5623 38.2733 17.4831 38.2105 17.4081 38.1428C17.3326 38.0751 17.2619 38.0032 17.1949 37.9277C17.1278 37.8522 17.0657 37.7725 17.0078 37.6899C16.9505 37.6072 16.8975 37.5215 16.85 37.4329C16.8024 37.3442 16.7598 37.2538 16.7226 37.1603C16.6854 37.0669 16.6537 36.9716 16.6281 36.8746C16.6019 36.7775 16.5818 36.6793 16.5672 36.5804C16.5526 36.481 16.5434 36.3816 16.5404 36.2809C16.538 36.1809 16.5404 36.0808 16.5495 35.9808C16.5581 35.8808 16.5727 35.7819 16.5928 35.6837C16.6287 35.4872 16.6812 35.2955 16.75 35.108C16.8189 34.9205 16.903 34.7402 17.0023 34.5664C17.1016 34.3927 17.215 34.228 17.3423 34.0728C17.4697 33.9177 17.6086 33.7739 17.7603 33.6415C17.9121 33.5091 18.0736 33.3905 18.2454 33.2845C18.4172 33.1785 18.5964 33.0874 18.7835 33.0113C18.9706 32.9346 19.1631 32.8741 19.3605 32.8292C19.558 32.7843 19.7579 32.7555 19.9602 32.7436C20.0619 32.737 20.1643 32.7364 20.2667 32.7412C20.3684 32.7459 20.4702 32.7567 20.5708 32.7729C20.6719 32.7891 20.7712 32.8112 20.87 32.8388C20.9681 32.8664 21.0643 32.8993 21.1588 32.9382C21.2532 32.9766 21.3453 33.0203 21.4348 33.0694C21.5244 33.118 21.6103 33.1719 21.6932 33.2306C21.7767 33.2893 21.8559 33.3522 21.9315 33.4199C22.007 33.4876 22.0789 33.5595 22.146 33.6349C22.2136 33.711 22.2758 33.7901 22.3343 33.8728C22.3922 33.956 22.4452 34.0417 22.4933 34.1303C22.5415 34.219 22.5841 34.3107 22.6213 34.4041C22.6584 34.4976 22.6901 34.5934 22.7163 34.6905C22.7425 34.7875 22.7633 34.8857 22.7779 34.9858C22.7925 35.0852 22.8017 35.1853 22.8047 35.2859C22.8077 35.3859 22.8047 35.4866 22.7962 35.5866C22.787 35.6873 22.773 35.7867 22.7523 35.885ZM43.8328 35.885C43.7968 36.0814 43.7444 36.2731 43.6756 36.4606C43.6067 36.6481 43.5226 36.8284 43.4233 37.0022C43.324 37.1759 43.2106 37.3406 43.0833 37.4958C42.9565 37.6509 42.817 37.7947 42.6652 37.9271C42.5135 38.0595 42.352 38.1781 42.1802 38.2841C42.0089 38.3902 41.8292 38.4812 41.6421 38.5573C41.455 38.634 41.2625 38.6945 41.065 38.7394C40.8676 38.7843 40.6677 38.8125 40.4654 38.8251C40.3636 38.8311 40.2619 38.8311 40.1601 38.8263C40.0584 38.8209 39.9572 38.8095 39.8566 38.7927C39.7561 38.776 39.6568 38.7538 39.5593 38.7256C39.4612 38.6975 39.3655 38.6645 39.271 38.6256C39.1772 38.5867 39.0858 38.5429 38.9968 38.4938C38.9079 38.4447 38.8219 38.3908 38.7397 38.3321C38.6568 38.2733 38.5782 38.2105 38.5026 38.1428C38.4277 38.0751 38.3564 38.0032 38.2894 37.9277C38.2223 37.8522 38.1602 37.7725 38.1029 37.6899C38.045 37.6072 37.992 37.5215 37.9445 37.4329C37.8969 37.3442 37.8543 37.2538 37.8171 37.1603C37.7799 37.0669 37.7488 36.9716 37.7226 36.8746C37.6964 36.7775 37.6763 36.6793 37.6617 36.5804C37.6471 36.481 37.6385 36.3816 37.6355 36.2809C37.6325 36.1809 37.6355 36.0808 37.644 35.9808C37.6526 35.8808 37.6672 35.7819 37.6873 35.6837C37.7239 35.4872 37.7763 35.2955 37.8451 35.108C37.9134 34.9205 37.9975 34.7402 38.0968 34.5664C38.1961 34.3927 38.3095 34.228 38.4368 34.0728C38.5642 33.9177 38.7037 33.7739 38.8548 33.6415C39.0066 33.5091 39.1681 33.3905 39.3399 33.2845C39.5117 33.1785 39.6909 33.0874 39.8786 33.0113C40.0657 32.9346 40.2576 32.8741 40.4551 32.8292C40.6525 32.7843 40.8524 32.7555 41.0547 32.7436C41.1564 32.7376 41.2582 32.737 41.36 32.7424C41.4617 32.7477 41.5629 32.7591 41.6634 32.7759C41.764 32.7927 41.8633 32.8148 41.9614 32.843C42.0589 32.8705 42.1552 32.9041 42.249 32.943C42.3429 32.982 42.4349 33.0257 42.5232 33.0748C42.6122 33.1239 42.6981 33.1779 42.781 33.2366C42.8633 33.2953 42.9425 33.3582 43.0174 33.4259C43.093 33.4936 43.1637 33.5654 43.2307 33.6409C43.2978 33.7164 43.3599 33.7961 43.4178 33.8787C43.4757 33.9614 43.5281 34.0471 43.5756 34.1351C43.6238 34.2238 43.6658 34.3148 43.703 34.4083C43.7402 34.5018 43.7718 34.597 43.798 34.694C43.8236 34.7911 43.8444 34.8893 43.8584 34.9882C43.873 35.0876 43.8821 35.1871 43.8852 35.2877C43.8882 35.3877 43.8852 35.4878 43.8767 35.5878C43.8675 35.6879 43.8535 35.7867 43.8328 35.885ZM40.0925 27.173L40.6787 22.7562H45.9516L47.9777 27.1928L40.0925 27.173Z" fill="#3A2215"/>
</g>
</g>
</g>
<defs>
<filter id="filter0_d_1_971" x="0" y="0" width="61" height="61" filterUnits="userSpaceOnUse" color-interpolation-filters="sRGB">
<feFlood flood-opacity="0" result="BackgroundImageFix"/>
<feColorMatrix in="SourceAlpha" type="matrix" values="0 0 0 0 0 0 0 0 0 0 0 0 0 0 0 0 0 0 127 0" result="hardAlpha"/>
<feOffset dy="4"/>
<feGaussianBlur stdDeviation="2"/>
<feComposite in2="hardAlpha" operator="out"/>
<feColorMatrix type="matrix" values="0 0 0 0 0 0 0 0 0 0 0 0 0 0 0 0 0 0 0.25 0"/>
<feBlend mode="normal" in2="BackgroundImageFix" result="effect1_dropShadow_1_971"/>
<feBlend mode="normal" in="SourceGraphic" in2="effect1_dropShadow_1_971" result="shape"/>
</filter>
<clipPath id="clip0_1_971">
<rect x="4" width="53" height="53" rx="26.5" fill="white"/>
</clipPath>
</defs>
</svg>
